<svg width="98" height="35" viewBox="0 0 98 35" fill="none" xmlns="http://www.w3.org/2000/svg">
<g clip-path="url(#clip0_8126_4805)">
<path d="M17.7997 15.9876C19.2708 14.1007 20.9299 13.2939 22.161 12.9365C23.3649 12.5867 24.6518 12.5305 26.0139 12.7641C25.0903 11.7518 24.4754 11.0777 24.4754 11.0777C23.6529 10.1764 22.8278 9.27898 22.0093 8.37514C21.4501 7.75854 20.9663 7.17257 20.2178 6.75895C19.4731 6.34788 18.6247 6.13086 17.7698 6.13086C16.8163 6.13086 15.8719 6.4015 15.0689 6.90832C14.6759 7.15726 14.3178 7.45981 14.0104 7.8045C13.4214 8.46323 12.8779 9.15643 12.2811 9.81005C11.9166 10.2096 11.5521 10.6092 11.1875 11.0088L1.2285 21.9289C0.469607 22.6706 0 23.697 0 24.8319C0 27.0915 1.86156 28.9235 4.15771 28.9235C5.30319 28.9235 6.3397 28.4677 7.0921 27.7311H7.0934L7.12065 27.7018C7.21145 27.6111 7.29837 27.5167 7.3801 27.4184L17.801 15.9889L17.7997 15.9876Z" fill="#4547EF"/>
<path d="M34.4327 21.9966C34.4327 21.9966 30.3178 17.4837 27.3782 14.2616C25.5932 13.6654 23.9521 13.5786 22.4811 14.0063C20.7375 14.5131 19.4727 15.6735 18.5906 16.8557L28.2824 27.486C28.3641 27.5843 28.451 27.6788 28.5418 27.7707L28.5704 27.8C29.3228 28.5366 30.3593 28.9924 31.5048 28.9924C33.8009 28.9924 35.6625 27.1605 35.6625 24.9009C35.6625 23.766 35.1929 22.7396 34.434 21.9978L34.4327 21.9966Z" fill="#4547EF"/>
<path d="M55.8478 21.4649C55.3029 20.0517 54.3105 19.0112 53.2546 18.2529L42.7507 27.5262C42.6534 27.6041 42.56 27.6871 42.4705 27.7726L42.4406 27.7994C41.7155 28.5182 41.2666 29.5063 41.2666 30.5978C41.2666 32.7872 43.0698 34.5616 45.2946 34.5616C46.4115 34.5616 47.4221 34.1136 48.1524 33.391C48.1524 33.391 52.6993 29.376 55.8789 26.5675C56.4263 24.659 56.4173 22.9496 55.8465 21.4649H55.8478Z" fill="#4547EF"/>
<path d="M63.0077 14.9285C62.7638 14.5532 62.4654 14.2123 62.1255 13.9187C61.4782 13.357 60.7945 12.8387 60.1511 12.2693C59.758 11.9221 59.365 11.5736 58.9719 11.2263L48.2215 1.73218C47.4925 1.00961 46.4806 0.561523 45.3637 0.561523C43.1389 0.561523 41.3357 2.33601 41.3357 4.5254C41.3357 5.61691 41.7845 6.60628 42.5097 7.32246L42.5382 7.35054C42.6278 7.43735 42.7212 7.51906 42.8185 7.59693L53.6389 17.1498C55.5458 18.4277 56.4656 19.9213 56.908 21.069C57.4035 22.3546 57.5371 23.769 57.3153 25.301C58.2727 24.4559 58.9057 23.8967 58.9057 23.8967C59.7931 23.1129 60.6765 22.3265 61.5664 21.5452C62.1735 21.0128 62.7508 20.5507 63.1569 19.8371C63.5616 19.1273 63.7743 18.3179 63.7743 17.5034C63.7743 16.5945 63.5084 15.6932 63.009 14.9285H63.0077Z" fill="#4547EF"/>
<path d="M73.7917 21.5798C75.2744 22.4211 76.8895 22.5603 78.3074 22.4185C78.3074 18.8287 78.3061 7.56772 78.3074 7.46304V7.42346C78.3061 6.40217 77.9092 5.38216 77.1178 4.60343C75.5313 3.04213 72.7098 3.05617 71.1232 4.61747C70.3267 5.40131 69.9297 6.43026 69.9336 7.45921C69.9336 7.45921 69.9349 11.695 69.9375 16.1823C70.7509 18.7713 72.0443 20.5866 73.793 21.5785L73.7917 21.5798Z" fill="#4547EF"/>
<path d="M96.8104 24.5876C96.0191 23.8089 95.0825 23.5178 94.046 23.5153L78.6294 23.5076C78.1896 23.5599 77.7719 23.5855 77.3749 23.5855C75.5354 23.5855 74.159 23.0761 73.2263 22.5476C71.8875 21.788 70.7887 20.6301 69.9377 19.0918C69.939 22.9152 69.9416 26.2791 69.9429 26.5842C69.9429 26.5842 69.9481 27.4842 70.0454 27.9234C70.2374 28.7877 70.6772 29.5958 71.2999 30.2328C71.9161 30.8622 72.7697 31.1685 73.6155 31.369C74.1889 31.5056 74.7895 31.6115 75.381 31.6269C75.909 31.6409 93.8151 31.6805 93.9227 31.6805C94.967 31.6843 96.0126 31.2937 96.8104 30.5098C98.397 28.9485 98.397 26.1476 96.8104 24.5863V24.5876Z" fill="#4547EF"/>
</g>
<defs>
<clipPath id="clip0_8126_4805">
<rect width="98" height="34" fill="white" transform="translate(0 0.561523)"/>
</clipPath>
</defs>
</svg>
