<svg width="81" height="76" viewBox="0 0 81 76" fill="none" xmlns="http://www.w3.org/2000/svg">
<path d="M78.6344 53.7167C78.6344 53.6882 78.6629 53.6882 78.6629 53.6597C78.6629 53.6027 78.3779 53.4886 78.1214 53.4886C77.8079 53.4886 77.4944 53.6597 77.4944 54.0587C77.4944 54.2867 77.5799 54.4007 77.7509 54.5147C78.0359 54.6857 78.3209 54.7142 78.3209 54.9707C78.3209 55.1417 78.2354 55.2272 78.0644 55.2272C77.8079 55.2272 77.6084 55.1132 77.6084 55.1132C77.6084 55.1132 77.5799 55.1132 77.5799 55.1417L77.5229 55.3127C77.5229 55.3412 77.5229 55.3412 77.5229 55.3697C77.5229 55.4267 77.8364 55.5407 78.1214 55.5407C78.4919 55.5407 78.7484 55.3127 78.7484 54.9422C78.7484 54.7142 78.6629 54.5717 78.4919 54.4577C78.2354 54.2867 77.9219 54.2297 77.9219 54.0302C77.9219 53.8592 78.0644 53.8022 78.1784 53.8022C78.3779 53.8022 78.5489 53.9162 78.5774 53.9162C78.5774 53.9162 78.6059 53.9162 78.6059 53.8877L78.6344 53.7167Z" fill="#0033CC"/>
<path d="M80.5439 55.4267C80.5439 55.4837 80.5439 55.4837 80.4869 55.4837H80.2304C80.1734 55.4837 80.1734 55.4837 80.1734 55.4267L80.1449 54.4577C80.1449 54.3437 80.1449 54.1157 80.1449 54.0017C80.1164 54.0872 80.0879 54.3437 80.0594 54.4292L79.8884 54.9707C79.8884 54.9992 79.8884 55.0277 79.8314 55.0277H79.6604C79.6034 55.0277 79.6034 55.0277 79.6034 54.9707L79.4324 54.4292C79.4039 54.3152 79.3469 54.0872 79.3469 54.0017C79.3469 54.0872 79.3469 54.3437 79.3469 54.4577L79.3184 55.4267C79.3184 55.4837 79.3184 55.4837 79.2614 55.4837H79.0619C79.0049 55.4837 79.0049 55.4837 79.0049 55.4267L79.0904 53.6027C79.0904 53.5457 79.0904 53.5457 79.1474 53.5457H79.4324C79.4894 53.5457 79.4894 53.5457 79.4894 53.6027L79.7174 54.3152C79.7459 54.4292 79.7744 54.5432 79.8029 54.6572C79.8314 54.5432 79.8314 54.5147 79.8884 54.3152L80.1164 53.6027C80.1449 53.5742 80.1449 53.5457 80.1734 53.5457H80.4584C80.5154 53.5457 80.5154 53.5742 80.5154 53.6312L80.5439 55.4267Z" fill="#0033CC"/>
<path fill-rule="evenodd" clip-rule="evenodd" d="M44.8607 32.9109C44.8607 32.9109 44.8037 29.4908 45.0887 27.3247C45.2597 26.0421 46.7988 26.0421 47.5968 26.9542C48.4233 27.9232 53.6105 35.191 56.4036 40.0647C56.4036 40.0647 51.1024 45.6224 49.3069 47.3894C47.5113 49.1565 43.5496 53.7737 41.6116 51.8926C40.671 50.9806 42.0391 47.3324 42.0391 47.3324C42.0391 47.3324 37.7069 46.5059 36.7379 50.7241C35.7689 54.9422 39.9015 56.9943 42.9226 55.3697C47.5968 52.8331 57.6007 41.6892 57.5722 41.7177C59.7097 44.4253 66.322 57.1938 70.6541 55.6547C74.2453 54.4007 74.0743 47.7029 71.8227 45.5084C71.1672 44.8813 70.9962 45.5654 71.1102 45.8504C71.4237 46.7339 71.7372 47.7314 71.4522 48.8145C71.1672 49.9545 70.5686 50.9521 69.0581 50.6386C67.6615 50.3535 61.9898 41.0052 60.6503 38.5256C60.6503 38.5256 69.5996 28.7212 73.0197 26.8117C76.4684 24.8451 76.8959 26.3842 76.6964 27.3247C76.4399 28.4932 75.8698 29.5763 75.2998 30.0608C75.2998 30.0608 78.7199 31.8564 79.9455 27.0967C81.0855 22.622 78.3494 20.7409 76.2974 21.7955C71.3382 24.2466 59.5102 37.1576 59.3962 37.1006C56.8311 33.5094 50.5324 22.109 46.4567 21.4535C43.2076 20.912 42.2956 24.7596 42.2386 26.2987C42.1816 27.8377 42.6661 32.3409 44.8607 32.9109Z" fill="#0033CC"/>
<path fill-rule="evenodd" clip-rule="evenodd" d="M20.2358 24.9591C20.6633 23.3915 22.0883 22.337 23.7414 22.337H28.4726C28.4726 22.337 32.8617 6.34789 37.6784 2.35774C41.184 -0.549363 46.1717 -0.606366 48.3948 1.3032C51.3589 3.8683 49.9339 7.51643 46.0862 6.40489C44.5757 5.97738 45.0317 3.44078 43.2076 2.64275C42.8371 2.47175 42.4951 2.30074 42.0106 2.24374C41.6116 2.18674 41.0985 2.21524 40.4145 2.52875C37.2224 3.9538 34.3153 14.9267 32.5482 22.3655H39.3315C38.8755 23.9045 37.4504 24.9591 35.8258 24.9876C34.0303 25.0161 31.9782 25.0161 31.8927 24.9591C31.6647 25.7571 28.8716 40.4922 26.848 47.5604C24.3114 56.4812 20.2643 69.1072 14.8206 73.3824C9.12036 77.857 3.87616 75.2919 2.82162 73.6674C2.1946 72.6698 2.2801 70.5608 3.22064 69.8197C4.8737 68.5372 7.38179 69.5917 8.23682 71.1878C10.3744 75.2634 13.538 73.3824 16.0176 67.5397C18.7822 60.9844 19.9508 56.1677 21.9173 48.672C23.5419 42.4872 26.9905 28.9207 27.589 24.9591H20.2358Z" fill="#0033CC"/>
<path d="M7.95179 15.2972C7.83779 14.4992 8.0373 13.7867 8.57882 13.1311C9.12034 12.5041 9.77586 12.1906 10.6024 12.1906C11.3719 12.1906 12.0844 12.4756 12.7115 13.0171C13.3385 13.5587 13.709 14.2142 13.7945 14.9267C13.937 15.8387 13.709 16.6938 13.1105 17.4348C12.7685 17.8908 12.0274 18.0903 10.9444 18.0903C10.2034 18.0903 9.54785 17.8338 8.97783 17.3208C8.40781 16.8078 8.0658 16.1238 7.95179 15.2972ZM9.46235 25.5576C8.86383 25.5576 8.43631 25.6146 8.1513 25.7001C6.92576 26.3841 6.04222 27.0112 5.4722 27.5242C4.33216 28.5217 3.30612 29.6618 2.36559 31.0013L0 31.5143C1.73856 28.5502 3.81914 26.2416 6.24173 24.5886C8.66432 22.907 10.6024 22.0805 12.1414 22.0805C12.797 22.0805 13.31 22.2515 13.6805 22.565C14.051 22.8785 14.279 23.306 14.336 23.819C14.5355 25.2156 14.051 27.5242 12.911 30.7448C12.7685 31.1438 12.455 32.1699 11.9419 33.8229C10.7449 37.528 9.43385 41.0622 7.95179 44.3683C7.46728 45.4513 6.98276 46.7339 6.44124 48.1874C6.15623 48.9855 5.89972 49.641 5.64321 50.1825C4.98768 51.6931 4.70267 52.8046 4.78818 53.5456C4.81668 53.7451 4.93068 53.9162 5.10169 54.0872C5.2727 54.2582 5.5007 54.3152 5.70021 54.3152C6.01372 54.3152 6.46974 54.1442 7.03976 53.8022C8.0373 53.2321 9.14884 52.2916 10.4599 50.9805C11.7424 49.6695 12.8255 48.1589 13.709 46.4489H15.5901C14.9346 47.9594 13.937 49.7265 12.5405 51.6931C11.1439 53.6596 9.49085 55.2557 7.52428 56.4242C6.07072 57.3363 4.70267 57.7638 3.47713 57.7638C2.53659 57.7638 1.82407 57.5643 1.31105 57.1938C0.826531 56.7948 0.513019 56.3102 0.427516 55.6832C0.114004 53.4886 1.14004 49.3845 3.50563 43.3423L8.55032 30.4028C9.06334 29.0632 9.43385 28.0087 9.60486 27.2392C9.71886 26.7547 9.74736 26.4411 9.71886 26.2701C9.74736 26.1846 9.66186 25.9281 9.46235 25.5576Z" fill="#0033CC"/>
</svg>
